<svg width="33" height="29" viewBox="0 0 33 29" fill="none" xmlns="http://www.w3.org/2000/svg">
<g clip-path="url(#clip0_54_403)">
<path d="M11.5 4.875H21.5V24.125H11.5V4.875Z" fill="#EC1C24"/>
<path d="M5.5 4.875C2.1865 4.875 0.5 7.02969 0.5 9.6875V19.3125C0.5 21.9703 2.1865 24.125 5.5 24.125H11.5V4.875H5.5Z" fill="#007A5E"/>
<path d="M27.4999 4.875H21.4999V24.125H27.4999C30.8134 24.125 32.4999 21.9703 32.4999 19.3125V9.6875C32.4999 7.02969 30.8134 4.875 27.4999 4.875ZM20.7309 13.0514L17.6299 13.0563L16.6699 10.3114L15.7129 13.0563L12.6099 13.0514L15.1249 14.7236L14.1489 17.4501L16.6739 15.7565L19.1989 17.4501L18.2199 14.7236L20.7309 13.0514Z" fill="#F9CB38"/>
</g>
<defs>
<clipPath id="clip0_54_403">
<rect width="32" height="28" fill="white" transform="translate(0.5 0.5)"/>
</clipPath>
</defs>
</svg>
