<svg width="21" height="23" viewBox="0 0 21 23" fill="none" xmlns="http://www.w3.org/2000/svg">
<path d="M3.86842 10.35L9.94736 0L16.0263 10.35H3.86842ZM16.0263 23C14.6447 23 13.4706 22.4971 12.5038 21.4912C11.5371 20.4853 11.0534 19.2633 11.0526 17.825C11.0519 16.3867 11.5356 15.165 12.5038 14.1599C13.472 13.1548 14.6462 12.6515 16.0263 12.65C17.4064 12.6485 18.5809 13.1518 19.5499 14.1599C20.5188 15.1681 21.0022 16.3898 21 17.825C20.9978 19.2602 20.5144 20.4823 19.5499 21.4912C18.5854 22.5001 17.4108 23.0031 16.0263 23ZM0 22.425V13.225H8.8421V22.425H0ZM16.0263 20.7C16.8 20.7 17.4539 20.4221 17.9882 19.8662C18.5224 19.3104 18.7895 18.63 18.7895 17.825C18.7895 17.02 18.5224 16.3396 17.9882 15.7837C17.4539 15.2279 16.8 14.95 16.0263 14.95C15.2526 14.95 14.5987 15.2279 14.0645 15.7837C13.5303 16.3396 13.2632 17.02 13.2632 17.825C13.2632 18.63 13.5303 19.3104 14.0645 19.8662C14.5987 20.4221 15.2526 20.7 16.0263 20.7ZM2.21053 20.125H6.63158V15.525H2.21053V20.125ZM7.7921 8.05H12.1026L9.94736 4.4275L7.7921 8.05Z" fill="black"/>
</svg>
