<svg width="57" height="51" viewBox="0 0 57 51" fill="none" xmlns="http://www.w3.org/2000/svg">
<path d="M36.3166 4.87756L55.0235 36.0354C57.7119 40.5104 56.3915 46.398 52.0728 49.1841C50.6241 50.1245 48.934 50.6249 47.2069 50.6246H9.79017C4.70654 50.6246 0.583252 46.3534 0.583252 41.0799C0.583252 39.296 1.06621 37.5512 1.9735 36.0354L20.6833 4.87756C23.3688 0.402521 29.0471 -0.968187 33.3658 1.8179C34.5606 2.5884 35.5712 3.63527 36.3166 4.87756ZM28.4999 39.4579C29.2403 39.4579 29.9504 39.1638 30.4739 38.6403C30.9975 38.1167 31.2916 37.4067 31.2916 36.6663C31.2916 35.9259 30.9975 35.2158 30.4739 34.6923C29.9504 34.1687 29.2403 33.8746 28.4999 33.8746C27.7595 33.8746 27.0494 34.1687 26.5259 34.6923C26.0024 35.2158 25.7083 35.9259 25.7083 36.6663C25.7083 37.4067 26.0024 38.1167 26.5259 38.6403C27.0494 39.1638 27.7595 39.4579 28.4999 39.4579ZM28.4999 14.3329C27.7595 14.3329 27.0494 14.6271 26.5259 15.1506C26.0024 15.6741 25.7083 16.3842 25.7083 17.1246V28.2913C25.7083 29.0317 26.0024 29.7417 26.5259 30.2653C27.0494 30.7888 27.7595 31.0829 28.4999 31.0829C29.2403 31.0829 29.9504 30.7888 30.4739 30.2653C30.9975 29.7417 31.2916 29.0317 31.2916 28.2913V17.1246C31.2916 16.3842 30.9975 15.6741 30.4739 15.1506C29.9504 14.6271 29.2403 14.3329 28.4999 14.3329Z" fill="#EC1C24" fill-opacity="0.4"/>
</svg>
